<svg id="Layer_1" enable-background="new 0 0 512 512" height="512" viewBox="0 0 512 512" width="512" xmlns="http://www.w3.org/2000/svg"><g><path d="m358.513 321.996h-116.838c-13.787 0-24.963-11.177-24.963-24.963v-116.963c0-13.787 11.176-24.963 24.963-24.963h116.838c13.787 0 24.963 11.177 24.963 24.963v116.963c.001 13.786-11.176 24.963-24.963 24.963z" fill="#7be492"/><path d="m358.523 155.106h-30.883c13.782 0 24.954 11.181 24.954 24.973v116.944c0 13.792-11.172 24.973-24.954 24.973h30.882c13.782 0 24.954-11.181 24.954-24.973v-116.944c.001-13.792-11.172-24.973-24.953-24.973z" fill="#45d987"/><path d="m247.594 289.031v-100.96c0-1.137.922-2.06 2.06-2.06h100.881c1.137 0 2.06.922 2.06 2.06v100.959c0 1.137-.922 2.06-2.06 2.06h-100.881c-1.138 0-2.06-.922-2.06-2.059z" fill="#f78e36"/><path d="m322.174 206.107h-40.219c-4.139 0-7.494 3.358-7.494 7.5v38.805h-.836c-4.139 0-7.494 3.358-7.494 7.5s3.355 7.5 7.494 7.5h8.331c4.139 0 7.494-3.358 7.494-7.5v-38.805h25.23v31.305h-2.273c-4.139 0-7.494 3.358-7.494 7.5s3.355 7.5 7.494 7.5h9.768c4.139 0 7.494-3.358 7.494-7.5v-46.305c-.001-4.142-3.356-7.5-7.495-7.5z" fill="#f3f3f3"/><path d="m302.366 512h-92.731c-2.106 0-3.85-1.635-3.988-3.738l-6.246-95.16h113.199l-6.246 95.16c-.138 2.103-1.883 3.738-3.988 3.738z" fill="#43809f"/><path d="m281.727 413.103-6.491 98.897h27.129c2.106 0 3.85-1.635 3.988-3.738l6.246-95.16h-30.872z" fill="#3a7190"/><path d="m418.647 311.682-105.95 104.879c-.062.061-.146.096-.233.096h-112.927c-.087 0-.171-.034-.233-.096l-105.951-104.879z" fill="#f78e36"/><path d="m387.765 311.682-106.048 104.974h30.746c.087 0 .171-.034.233-.096l105.95-104.879h-30.881z" fill="#f86f1b"/><path d="m428.935 315.235h-345.87c-9.669 0-17.507-7.838-17.507-17.507v-.013c0-9.669 7.838-17.507 17.507-17.507h345.869c9.669 0 17.507 7.838 17.507 17.507v.013c0 9.669-7.838 17.507-17.506 17.507z" fill="#43809f"/><path d="m428.941 280.209h-30.882c9.665 0 17.5 7.841 17.5 17.513 0 9.672-7.835 17.513-17.5 17.513h30.882c9.665 0 17.5-7.841 17.5-17.513 0-9.672-7.835-17.513-17.5-17.513z" fill="#3a7190"/><path d="m458.537 166.889h-116.838c-13.787 0-24.963-11.177-24.963-24.963v-116.963c-.001-13.786 11.176-24.963 24.963-24.963h116.838c13.786 0 24.963 11.177 24.963 24.963v116.963c0 13.787-11.177 24.963-24.963 24.963z" fill="#7be492"/><path d="m458.546 0h-30.882c13.782 0 24.954 11.181 24.954 24.973v116.944c0 13.792-11.172 24.973-24.954 24.973h30.882c13.782 0 24.954-11.181 24.954-24.973v-116.944c0-13.792-11.172-24.973-24.954-24.973z" fill="#45d987"/><path d="m347.618 133.924v-100.959c0-1.137.922-2.06 2.06-2.06h100.881c1.137 0 2.06.922 2.06 2.06v100.959c0 1.137-.922 2.06-2.06 2.06h-100.882c-1.137 0-2.059-.922-2.059-2.06z" fill="#f78e36"/><path d="m380.044 103.513v-40.137c0-3.663 3.958-5.887 6.989-3.927l31.041 20.069c2.823 1.825 2.823 6.029 0 7.854l-31.041 20.069c-3.031 1.959-6.989-.264-6.989-3.928z" fill="#f3f3f3"/><path d="m170.301 200.37h-116.838c-13.787 0-24.963-11.177-24.963-24.963v-116.963c0-13.787 11.177-24.963 24.963-24.963h116.838c13.787 0 24.963 11.177 24.963 24.963v116.962c.001 13.788-11.176 24.964-24.963 24.964z" fill="#7be492"/><path d="m170.311 33.481h-30.882c13.782 0 24.954 11.181 24.954 24.973v116.944c0 13.792-11.172 24.973-24.954 24.973h30.882c13.782 0 24.954-11.181 24.954-24.973v-116.944c0-13.793-11.173-24.973-24.954-24.973z" fill="#45d987"/><path d="m59.382 167.405v-100.959c0-1.137.922-2.06 2.06-2.06h100.881c1.137 0 2.06.922 2.06 2.06v100.959c0 1.137-.922 2.06-2.06 2.06h-100.881c-1.138 0-2.06-.922-2.06-2.06z" fill="#f78e36"/><path d="m162.323 169.465h-100.881c-1.137 0-2.06-.922-2.06-2.06v-33.557h105v33.557c0 1.138-.922 2.06-2.059 2.06z" fill="#29cef6"/><path d="m111.882 133.848h52.5l-24.637-31.048c-.824-1.039-2.4-1.039-3.225 0z" fill="#e4e4e4"/><path d="m59.382 133.848h64.813l-30.794-38.807c-.824-1.039-2.4-1.039-3.225 0z" fill="#f3f3f3"/></g></svg>